<?xml version="1.0" standalone="no"?><!DOCTYPE svg PUBLIC "-//W3C//DTD SVG 1.1//EN" "http://www.w3.org/Graphics/SVG/1.1/DTD/svg11.dtd"><svg height="1024" node-id="1" sillyvg="true" template-height="1024" template-width="1434" version="1.1" viewBox="0 0 1434 1024" width="1434" xmlns="http://www.w3.org/2000/svg" xmlns:xlink="http://www.w3.org/1999/xlink"><defs node-id="103"></defs><g node-id="105"><g node-id="106"><path d="M 580.59 0.41 C 826.99 0.53 1073.48 -0.74 1319.89 0.74 C 1399.24 1.19 1434.29 38.17 1434.29 116.91 C 1434.35 375.97 1434.35 635.05 1434.35 894.14 C 1434.35 952.33 1427.14 999.22 1368.46 1018.25 C 1356.62 1022.08 1338.67 1023.99 1314.58 1023.96 C 1134.64 1023.74 954.70 1023.75 774.76 1024.00 C 549.78 1023.78 324.79 1023.62 99.78 1023.51 C 41.14 1023.51 1.32 983.48 1.15 925.99 C 0.41 650.05 0.03 374.11 0.00 98.17 C 0.00 58.02 24.25 21.33 61.64 7.44 C 72.03 3.60 90.13 1.50 115.97 1.15 C 270.69 -1.07 425.83 0.65 580.59 0.41 Z M 719.45 232.76 C 719.20 238.29 717.78 243.38 715.17 248.01 C 705.80 252.01 697.93 257.94 691.54 265.80 C 675.44 259.72 664.05 265.68 658.63 282.24 C 652.77 300.21 647.24 318.30 642.07 336.52 C 637.35 337.95 632.89 337.61 628.67 335.50 C 627.44 334.89 626.14 334.55 624.77 334.47 L 609.52 333.44 C 608.53 321.48 609.56 295.68 589.84 300.73 C 557.56 300.68 525.30 300.57 493.06 300.40 C 468.28 300.32 430.26 298.39 398.95 301.02 C 396.63 301.20 394.49 302.32 393.01 304.10 C 391.52 305.89 390.82 308.20 391.06 310.51 L 399.11 389.17 C 376.79 399.19 361.25 415.84 352.51 439.10 L 338.29 439.26 L 337.10 438.07 C 337.59 408.40 343.31 397.84 365.33 378.97 C 366.61 377.86 367.43 375.69 366.81 374.25 C 366.07 372.55 364.99 372.28 363.57 373.43 L 335.95 395.33 C 331.63 398.76 330.28 404.74 332.70 409.71 C 335.50 415.49 335.73 421.26 333.40 427.01 C 331.49 431.75 330.28 431.59 329.79 426.52 C 328.31 410.49 323.20 395.71 314.46 382.18 C 313.66 380.95 313.33 379.60 313.47 378.15 L 313.72 375.60 C 319.55 353.17 259.19 340.10 249.77 351.77 C 246.82 351.11 243.95 351.44 241.19 352.76 C 239.13 353.69 239.20 354.44 241.39 355.02 C 258.61 359.50 281.38 366.65 293.25 372.36 C 322.06 386.21 323.09 408.97 327.86 438.07 C 323.20 439.44 318.73 439.77 314.46 439.06 C 313.49 438.89 312.51 439.26 311.89 440.01 C 311.26 440.76 311.08 441.79 311.42 442.71 C 315.36 454.03 317.07 465.49 316.55 477.11 L 219.04 477.27 C 217.61 477.27 216.90 477.97 216.90 479.37 L 216.90 507.03 C 216.90 508.62 217.69 509.42 219.28 509.45 L 253.88 510.31 L 254.05 560.49 C 244.79 601.75 243.13 643.68 249.08 686.28 L 245.01 749.57 C 244.84 751.98 244.42 752.02 243.73 749.69 C 235.73 722.68 224.82 697.13 210.98 673.05 C 203.13 652.01 180.04 614.57 152.96 624.89 C 151.67 625.38 150.76 626.24 150.24 627.48 C 139.43 652.63 202.23 696.06 221.01 707.24 C 233.88 728.39 241.54 751.34 243.98 776.07 C 244.09 777.17 243.75 777.33 242.95 776.57 C 224.93 758.81 203.57 746.66 178.89 740.12 C 171.94 736.66 131.01 724.50 141.04 747.18 C 141.61 748.47 142.53 749.42 143.79 750.02 C 155.27 755.75 167.65 758.38 180.94 757.91 L 181.84 761.16 C 182.26 762.53 181.95 763.72 180.94 764.73 C 136.19 809.81 112.11 865.66 97.48 926.52 C 96.98 928.52 97.76 929.58 99.82 929.69 C 138.48 931.44 176.82 930.92 214.84 928.13 C 238.49 930.13 262.12 930.13 285.73 928.13 C 287.83 928.95 287.21 929.32 289.92 929.32 C 369.70 929.26 449.47 929.21 529.22 929.15 L 651.48 929.15 L 990.51 929.15 L 1040.85 929.15 L 1107.63 929.15 C 1132.40 930.25 1157.15 929.58 1181.89 927.14 C 1183.72 926.56 1185.51 926.91 1187.23 928.17 C 1188.38 929.02 1189.68 929.44 1191.14 929.44 L 1329.21 930.43 C 1330.19 930.44 1331.08 929.86 1331.47 928.96 C 1331.85 928.06 1331.66 927.02 1330.98 926.32 C 1291.98 884.98 1240.70 860.40 1183.82 877.95 L 1165.00 785.77 C 1167.14 757.69 1167.82 729.86 1167.05 702.27 L 1166.03 665.28 L 1167.05 625.22 L 1166.19 583.96 L 1168.08 510.15 C 1172.03 509.08 1176.29 509.11 1180.86 510.23 C 1182.72 510.70 1183.66 509.97 1183.66 508.05 L 1183.66 478.51 C 1183.66 476.89 1182.83 476.10 1181.19 476.12 L 1119.96 477.44 L 1116.71 469.05 C 1127.73 460.47 1132.33 380.04 1132.29 367.51 C 1133.73 345.61 1128.30 332.46 1123.04 312.03 C 1138.63 303.76 1143.90 291.13 1138.86 274.14 C 1135.22 261.84 1130.90 254.25 1125.92 251.37 C 1097.64 235.10 1117.04 205.10 1101.63 184.06 C 1063.99 132.69 997.21 185.66 1024.41 196.97 C 1019.65 214.01 1018.36 229.28 1020.55 242.79 C 1022.17 252.62 1028.30 260.24 1038.96 265.63 C 1039.56 272.05 1038.97 277.37 1037.19 281.62 C 1012.15 295.43 999.73 317.84 999.92 348.85 L 993.76 384.81 L 982.13 426.73 C 981.77 428.04 980.96 428.96 979.70 429.48 C 957.22 438.40 928.09 453.89 904.21 455.49 C 883.58 456.86 864.55 463.40 847.13 475.10 C 846.01 475.86 844.76 476.25 843.39 476.25 L 814.83 476.41 C 812.28 455.99 810.06 439.63 805.05 416.17 C 802.50 404.00 795.39 360.56 803.69 351.93 L 834.19 386.86 C 852.43 410.99 872.90 375.44 880.58 361.34 L 913.21 360.03 C 914.55 359.97 915.47 359.32 915.96 358.06 L 937.37 301.72 C 946.39 293.17 950.35 282.51 949.25 269.74 L 958.00 248.17 C 958.52 246.85 958.07 246.18 956.65 246.16 L 873.64 245.99 C 872.46 245.99 871.66 246.53 871.25 247.59 L 843.02 320.58 C 832.77 308.33 823.43 295.52 814.99 282.15 C 809.16 272.91 791.69 256.31 779.90 263.74 C 772.78 258.13 764.90 254.02 756.27 251.42 L 753.02 245.09 L 752.00 240.98 L 757.13 238.92 C 765.27 243.01 774.02 245.46 783.39 246.28 C 785.09 246.42 785.68 245.68 785.16 244.06 C 781.52 232.50 780.47 224.29 782.04 219.44 C 787.58 202.18 800.82 156.90 785.57 145.68 C 771.57 135.38 755.97 130.05 738.76 129.69 C 709.09 129.08 701.45 149.58 696.81 175.39 C 693.68 192.69 691.34 213.77 704.49 227.79 C 705.48 228.83 706.70 229.29 708.15 229.18 C 712.61 228.85 716.38 230.05 719.45 232.76 Z" fill="#ffffff" fill-rule="nonzero" group-id="1,2" id="形状" node-id="7" stroke="none" target-height="1025.071" target-width="1434.3488" target-x="0" target-y="-1.0710509"></path><path d="M 757.13 238.92 L 755.32 224.62 C 755.10 223.06 755.79 222.35 757.38 222.49 C 788.57 225.49 784.79 175.06 779.61 157.43 C 779.39 156.67 778.75 156.09 777.97 155.96 C 777.18 155.82 776.39 156.13 775.91 156.77 C 765.72 170.83 759.15 168.65 745.42 174.61 C 744.11 175.16 743.30 176.14 743.00 177.57 C 738.53 199.87 741.53 221.01 752.00 240.98 L 753.02 245.09 C 741.19 242.65 730.00 238.54 719.45 232.76 C 716.38 230.05 712.61 228.85 708.15 229.18 C 706.70 229.29 705.48 228.83 704.49 227.79 C 691.34 213.77 693.68 192.69 696.81 175.39 C 701.45 149.58 709.09 129.08 738.76 129.69 C 755.97 130.05 771.57 135.38 785.57 145.68 C 800.82 156.90 787.58 202.18 782.04 219.44 C 780.47 224.29 781.52 232.50 785.16 244.06 C 785.68 245.68 785.09 246.42 783.39 246.28 C 774.02 245.46 765.27 243.01 757.13 238.92 Z" fill="#00303f" fill-rule="nonzero" group-id="1,2" id="路径" node-id="8" stroke="none" target-height="117.33963" target-width="109.47681" target-x="691.3394" target-y="129.07648"></path><path d="M 757.13 238.92 L 752.00 240.98 C 741.53 221.01 738.53 199.87 743.00 177.57 C 743.30 176.14 744.11 175.16 745.42 174.61 C 759.15 168.65 765.72 170.83 775.91 156.77 C 776.39 156.13 777.18 155.82 777.97 155.96 C 778.75 156.09 779.39 156.67 779.61 157.43 C 784.79 175.06 788.57 225.49 757.38 222.49 C 755.79 222.35 755.10 223.06 755.32 224.62 L 757.13 238.92 Z" fill="#ffa5ab" fill-rule="nonzero" group-id="1,2" id="路径" node-id="9" stroke="none" target-height="85.16211" target-width="50.039917" target-x="738.53" target-y="155.81577"></path><path d="M 1123.04 312.03 C 1092.19 322.99 1065.84 316.70 1043.97 293.17 C 1045.78 277.35 1051.04 263.29 1042.91 248.01 C 1047.21 234.28 1047.41 220.61 1043.52 206.99 C 1043.11 205.54 1042.29 204.39 1041.06 203.54 C 1036.13 200.12 1030.58 197.92 1024.41 196.97 C 997.21 185.66 1063.99 132.69 1101.63 184.06 C 1117.04 205.10 1097.64 235.10 1125.92 251.37 C 1130.90 254.25 1135.22 261.84 1138.86 274.14 C 1143.90 291.13 1138.63 303.76 1123.04 312.03 Z" fill="#00303f" fill-rule="nonzero" group-id="1,2" id="路径" node-id="10" stroke="none" target-height="190.29677" target-width="146.69507" target-x="997.20874" target-y="132.69283"></path><path d="M 1024.41 196.97 C 1030.58 197.92 1036.13 200.12 1041.06 203.54 C 1042.29 204.39 1043.11 205.54 1043.52 206.99 C 1047.41 220.61 1047.21 234.28 1042.91 248.01 L 1038.96 265.63 C 1028.30 260.24 1022.17 252.62 1020.55 242.79 C 1018.36 229.28 1019.65 214.01 1024.41 196.97 Z" fill="#ffb5bf" fill-rule="nonzero" group-id="1,2" id="路径" node-id="11" stroke="none" target-height="68.669586" target-width="29.054077" target-x="1018.3589" target-y="196.96524"></path><path d="M 719.45 232.76 C 730.00 238.54 741.19 242.65 753.02 245.09 L 756.27 251.42 L 749.49 277.22 C 748.64 280.51 746.72 281.35 743.74 279.73 C 731.11 272.96 721.59 262.39 715.17 248.01 C 717.78 243.38 719.20 238.29 719.45 232.76 Z" fill="#ffa5ab" fill-rule="nonzero" group-id="1,2" id="路径" node-id="12" stroke="none" target-height="48.587875" target-width="41.09491" target-x="715.17444" target-y="232.7589"></path><path d="M 949.25 269.74 C 941.61 266.76 935.81 268.46 931.87 274.84 C 931.10 276.07 930.02 276.48 928.62 276.07 C 921.76 274.06 919.25 278.50 921.80 284.62 C 924.90 292.07 930.09 297.77 937.37 301.72 L 915.96 358.06 C 915.47 359.32 914.55 359.97 913.21 360.03 L 880.58 361.34 L 830.69 360.69 C 828.94 360.66 828.36 359.82 828.97 358.18 L 843.02 320.58 L 871.25 247.59 C 871.66 246.53 872.46 245.99 873.64 245.99 L 956.65 246.16 C 958.07 246.18 958.52 246.85 958.00 248.17 L 949.25 269.74 Z" fill="#594e66" fill-rule="nonzero" group-id="1,2" id="路径" node-id="13" stroke="none" target-height="115.35336" target-width="130.16125" target-x="828.36346" target-y="245.99146"></path><path d="M 715.17 248.01 C 721.59 262.39 731.11 272.96 743.74 279.73 C 746.72 281.35 748.64 280.51 749.49 277.22 L 756.27 251.42 C 764.90 254.02 772.78 258.13 779.90 263.74 C 791.71 275.58 798.21 289.85 799.42 306.57 L 796.34 306.57 L 791.73 293.37 C 790.94 291.07 789.64 290.73 787.83 292.35 L 783.15 296.58 C 781.83 297.76 781.94 298.77 783.47 299.62 C 786.95 301.51 789.58 304.22 791.36 307.76 C 789.50 311.26 789.16 315.03 790.34 319.06 L 783.84 379.67 L 781.95 379.84 L 781.09 377.62 C 783.06 357.45 784.65 337.22 785.86 316.92 C 786.43 307.39 783.01 301.72 775.58 299.91 C 774.16 299.55 773.98 298.87 775.05 297.85 L 786.93 286.43 C 786.68 275.69 781.31 267.88 770.82 263.00 C 770.53 262.87 770.18 262.90 769.93 263.10 C 769.68 263.29 769.58 263.61 769.67 263.91 L 773.82 281.58 C 769.71 281.72 766.23 279.50 763.38 274.92 C 762.37 273.31 761.20 273.18 759.89 274.55 C 758.82 275.68 758.64 277.10 759.35 278.83 C 750.31 285.84 741.89 286.52 734.08 280.88 C 732.14 279.47 729.53 279.40 727.52 280.70 C 725.51 282.00 724.50 284.41 725.00 286.76 C 728.72 304.26 730.63 321.59 730.71 338.74 C 730.75 344.41 728.16 348.52 726.64 353.99 L 724.71 304.06 C 724.65 302.50 724.27 301.00 723.56 299.58 L 706.63 265.72 C 706.16 264.73 705.63 264.69 705.02 265.59 L 698.90 274.88 C 699.48 271.79 698.96 269.61 697.34 268.35 C 695.61 267.03 694.38 267.40 693.64 269.46 L 686.90 288.48 C 686.33 290.15 686.87 291.28 688.54 291.85 C 693.37 293.50 697.45 296.46 700.79 300.73 L 706.79 309.81 C 708.68 320.33 709.61 330.95 709.59 341.66 C 709.56 357.69 709.07 357.74 708.11 341.82 C 707.45 331.14 704.09 321.41 698.04 312.65 L 694.63 310.67 C 705.35 306.73 685.55 296.74 682.26 297.44 C 668.16 300.57 664.71 313.72 660.56 327.28 L 658.83 327.28 L 657.68 324.20 C 657.24 323.02 657.09 321.80 657.23 320.54 C 658.82 306.78 665.90 297.14 678.48 291.61 C 679.82 291.03 680.79 290.07 681.39 288.73 L 691.54 265.80 C 697.93 257.94 705.80 252.01 715.17 248.01 Z" fill="#2c556b" fill-rule="nonzero" group-id="1,2" id="路径" node-id="14" stroke="none" target-height="131.83241" target-width="142.32532" target-x="657.0937" target-y="248.00511"></path><path d="M 1042.91 248.01 C 1051.04 263.29 1045.78 277.35 1043.97 293.17 C 1043.56 289.80 1041.30 285.95 1037.19 281.62 C 1038.97 277.37 1039.56 272.05 1038.96 265.63 L 1042.91 248.01 Z" fill="#2c556b" fill-rule="nonzero" group-id="1,2" id="路径" node-id="15" stroke="none" target-height="45.163284" target-width="13.848877" target-x="1037.1941" target-y="248.00511"></path><path d="M 843.02 320.58 L 828.97 358.18 C 828.36 359.82 828.94 360.66 830.69 360.69 L 880.58 361.34 C 872.90 375.44 852.43 410.99 834.19 386.86 C 823.66 369.17 810.99 353.07 796.17 338.58 C 796.06 338.44 795.94 338.44 795.80 338.58 C 795.58 338.82 795.32 339.09 795.02 339.36 C 794.47 339.88 794.43 340.43 794.90 341.00 L 803.69 351.93 C 795.39 360.56 802.50 404.00 805.05 416.17 C 810.06 439.63 812.28 455.99 814.83 476.41 C 814.83 476.66 814.83 476.89 814.83 477.11 L 785.04 476.08 L 783.84 379.67 L 790.34 319.06 L 794.28 318.89 C 796.47 320.32 798.67 320.55 800.86 319.59 C 802.28 318.99 803.12 317.92 803.36 316.39 C 803.99 312.63 802.68 309.36 799.42 306.57 C 798.21 289.85 791.71 275.58 779.90 263.74 C 791.69 256.31 809.16 272.91 814.99 282.15 C 823.43 295.52 832.77 308.33 843.02 320.58 Z" fill="#c5deff" fill-rule="nonzero" group-id="1,2" id="路径" node-id="16" stroke="none" target-height="220.80286" target-width="100.682495" target-x="779.8989" target-y="256.30627"></path><path d="M 691.54 265.80 L 681.39 288.73 C 680.79 290.07 679.82 291.03 678.48 291.61 C 665.90 297.14 658.82 306.78 657.23 320.54 C 657.09 321.80 657.24 323.02 657.68 324.20 L 658.83 327.28 C 657.27 336.65 646.75 373.67 667.75 368.37 L 675.11 372.65 C 675.05 373.08 675.01 373.52 674.98 373.96 C 674.90 374.87 674.42 375.39 673.55 375.52 C 673.02 375.58 672.52 375.65 672.02 375.73 L 650.66 378.07 C 649.81 378.18 649.40 378.66 649.42 379.51 C 649.42 380.03 649.42 380.51 649.42 380.95 C 649.37 381.99 649.86 382.45 650.90 382.34 L 684.89 378.23 C 686.20 378.07 687.16 378.59 687.76 379.80 C 689.65 383.54 691.34 398.82 694.54 399.73 C 695.32 399.95 696.16 399.71 696.69 399.10 C 697.23 398.50 697.37 397.64 697.05 396.89 C 694.34 390.45 693.24 384.37 693.76 378.65 L 696.52 372.48 L 697.63 369.56 C 698.23 367.92 697.68 366.88 695.98 366.44 L 691.26 365.25 C 689.42 364.78 688.27 365.47 687.81 367.30 C 687.20 369.55 687.13 371.62 687.60 373.51 C 687.49 373.87 687.38 374.21 687.27 374.54 L 682.55 374.62 C 681.12 374.62 680.35 373.92 680.24 372.52 L 680.08 370.43 L 679.83 367.14 C 679.70 365.28 678.71 364.54 676.87 364.92 L 668.94 366.48 C 666.26 366.76 663.90 366.21 661.87 364.84 C 660.64 363.99 660.04 362.81 660.07 361.30 L 660.56 327.28 C 664.71 313.72 668.16 300.57 682.26 297.44 C 685.55 296.74 705.35 306.73 694.63 310.67 L 693.60 311.78 C 692.81 312.63 692.56 313.62 692.86 314.74 L 707.98 373.34 L 703.54 375.81 C 702.37 376.47 701.74 377.45 701.65 378.77 C 701.19 385.73 704.27 390.48 710.90 393.03 C 715.56 420.15 718.02 447.48 718.30 475.01 C 718.33 476.33 717.68 476.99 716.37 476.99 L 674.08 476.41 C 676.02 457.15 680.23 438.26 686.70 419.74 C 687.06 418.66 686.88 417.47 686.21 416.55 C 685.53 415.64 684.45 415.13 683.33 415.18 C 679.52 415.34 676.83 417.55 675.27 421.80 C 658.75 425.41 631.01 440.25 624.85 413.70 C 622.09 401.86 626.66 395.82 629.33 386.00 C 633.79 369.59 638.04 353.10 642.07 336.52 C 647.24 318.30 652.77 300.21 658.63 282.24 C 664.05 265.68 675.44 259.72 691.54 265.80 Z" fill="#d3e6ff" fill-rule="nonzero" group-id="1,2" id="路径" node-id="17" stroke="none" target-height="217.2687" target-width="96.23053" target-x="622.09454" target-y="259.71716"></path><path d="M 786.93 286.43 C 781.56 281.85 777.19 280.24 773.82 281.58 L 769.67 263.91 C 769.58 263.61 769.68 263.29 769.93 263.10 C 770.18 262.90 770.53 262.87 770.82 263.00 C 781.31 267.88 786.68 275.69 786.93 286.43 Z" fill="#8a96a0" fill-rule="nonzero" group-id="1,2" id="路径" node-id="18" stroke="none" target-height="23.5625" target-width="17.348694" target-x="769.57745" target-y="262.86633"></path><path d="M 726.64 353.99 L 726.64 366.32 C 722.50 372.40 716.97 374.40 710.04 372.32 C 709.46 364.59 709.50 357.48 706.46 350.08 C 701.59 338.28 698.78 325.80 698.04 312.65 C 704.09 321.41 707.45 331.14 708.11 341.82 C 709.07 357.74 709.56 357.69 709.59 341.66 C 709.61 330.95 708.68 320.33 706.79 309.81 L 709.01 305.87 C 710.41 306.00 711.42 305.80 712.05 305.25 C 713.17 304.24 713.15 303.28 711.97 302.37 L 694.63 288.98 C 693.26 287.91 692.97 286.59 693.76 285.03 L 698.90 274.88 L 705.02 265.59 C 705.63 264.69 706.16 264.73 706.63 265.72 L 723.56 299.58 C 724.27 301.00 724.65 302.50 724.71 304.06 L 726.64 353.99 Z" fill="#d3e6ff" fill-rule="nonzero" group-id="1,2" id="路径" node-id="19" stroke="none" target-height="109.709656" target-width="33.67047" target-x="692.9695" target-y="264.68964"></path><path d="M 698.90 274.88 L 693.76 285.03 C 692.97 286.59 693.26 287.91 694.63 288.98 L 711.97 302.37 C 713.15 303.28 713.17 304.24 712.05 305.25 C 711.42 305.80 710.41 306.00 709.01 305.87 C 707.12 302.25 704.38 300.54 700.79 300.73 C 697.45 296.46 693.37 293.50 688.54 291.85 C 686.87 291.28 686.33 290.15 686.90 288.48 L 693.64 269.46 C 694.38 267.40 695.61 267.03 697.34 268.35 C 698.96 269.61 699.48 271.79 698.90 274.88 Z" fill="#525dca" fill-rule="nonzero" group-id="1,2" id="路径" node-id="20" stroke="none" target-height="38.97165" target-width="26.848694" target-x="686.3258" target-y="267.03204"></path><path d="M 949.25 269.74 C 950.35 282.51 946.39 293.17 937.37 301.72 C 930.09 297.77 924.90 292.07 921.80 284.62 C 919.25 278.50 921.76 274.06 928.62 276.07 C 930.02 276.48 931.10 276.07 931.87 274.84 C 935.81 268.46 941.61 266.76 949.25 269.74 Z" fill="#ffa5ab" fill-rule="nonzero" group-id="1,2" id="路径" node-id="21" stroke="none" target-height="34.95804" target-width="31.095154" target-x="919.2517" target-y="266.7581"></path><path d="M 773.82 281.58 C 777.19 280.24 781.56 281.85 786.93 286.43 L 775.05 297.85 C 773.98 298.87 774.16 299.55 775.58 299.91 C 783.01 301.72 786.43 307.39 785.86 316.92 C 784.65 337.22 783.06 357.45 781.09 377.62 L 771.68 378.48 C 769.98 344.95 765.87 311.73 759.35 278.83 C 758.64 277.10 758.82 275.68 759.89 274.55 C 761.20 273.18 762.37 273.31 763.38 274.92 C 766.23 279.50 769.71 281.72 773.82 281.58 Z" fill="#d3e6ff" fill-rule="nonzero" group-id="1,2" id="路径" node-id="22" stroke="none" target-height="105.2988" target-width="28.286987" target-x="758.63916" target-y="273.1826"></path><path d="M 759.35 278.83 C 765.87 311.73 769.98 344.95 771.68 378.48 C 763.24 381.66 755.00 381.50 746.94 377.99 C 743.08 376.34 743.24 375.30 747.43 374.87 L 760.46 373.55 C 761.94 373.39 762.58 372.58 762.39 371.13 C 761.69 365.82 730.42 366.77 726.64 366.32 L 726.64 353.99 C 728.16 348.52 730.75 344.41 730.71 338.74 C 730.63 321.59 728.72 304.26 725.00 286.76 C 724.50 284.41 725.51 282.00 727.52 280.70 C 729.53 279.40 732.14 279.47 734.08 280.88 C 741.89 286.52 750.31 285.84 759.35 278.83 Z" fill="#477cf3" fill-rule="nonzero" group-id="1,2" id="路径" node-id="23" stroke="none" target-height="102.83313" target-width="47.177612" target-x="724.5023" target-y="278.82626"></path><path d="M 1037.19 281.62 C 1041.30 285.95 1043.56 289.80 1043.97 293.17 C 1065.84 316.70 1092.19 322.99 1123.04 312.03 C 1128.30 332.46 1133.73 345.61 1132.29 367.51 L 1115.36 368.95 C 1113.90 369.06 1112.92 369.80 1112.40 371.17 C 1105.55 388.73 1102.53 406.97 1103.36 425.90 C 1100.53 423.36 1097.54 421.07 1094.36 419.04 C 1084.70 412.96 1080.34 404.58 1069.00 399.69 C 1067.77 399.15 1067.65 398.86 1067.36 397.55 C 1067.08 396.29 1066.44 395.28 1065.43 394.51 C 1061.69 391.76 1033.33 366.36 1032.92 366.52 C 1031.82 366.88 1030.85 366.66 1030.00 365.87 C 1026.14 362.25 1004.44 341.41 999.92 348.85 C 999.73 317.84 1012.15 295.43 1037.19 281.62 Z" fill="#f95b97" fill-rule="nonzero" group-id="1,2" id="路径" node-id="24" stroke="none" target-height="144.28418" target-width="133.99677" target-x="999.7292" target-y="281.62073"></path><path d="M 796.34 306.57 L 794.28 307.92 L 791.36 307.76 C 789.58 304.22 786.95 301.51 783.47 299.62 C 781.94 298.77 781.83 297.76 783.15 296.58 L 787.83 292.35 C 789.64 290.73 790.94 291.07 791.73 293.37 L 796.34 306.57 Z" fill="#d3e6ff" fill-rule="nonzero" group-id="1,2" id="路径" node-id="25" stroke="none" target-height="17.191345" target-width="14.50647" target-x="781.8304" target-y="290.7301"></path><path d="M 589.84 300.73 L 594.15 304.10 C 595.19 304.89 595.82 305.95 596.04 307.26 C 603.57 352.99 607.75 398.96 608.57 445.18 L 525.11 445.26 L 525.69 444.32 C 526.18 443.49 526.43 442.62 526.43 441.69 L 526.67 387.89 C 526.70 386.30 526.47 386.26 525.97 387.77 C 519.75 406.62 515.08 425.84 511.96 445.42 L 506.74 465.52 C 506.33 467.14 506.96 467.96 508.63 467.99 C 520.08 468.26 535.85 467.99 555.93 467.16 C 558.81 467.05 560.49 468.48 560.99 471.44 C 561.23 472.81 562.03 473.60 563.37 473.82 C 576.52 476.18 589.79 477.04 603.19 476.41 L 526.88 478.10 C 498.74 479.08 470.41 478.52 441.89 476.41 L 457.67 476.08 C 458.93 476.05 459.73 475.44 460.06 474.23 L 466.39 450.52 C 467.26 447.18 465.98 445.51 462.52 445.51 C 450.89 445.51 406.76 450.73 405.11 435.97 C 403.44 421.01 401.44 405.41 399.11 389.17 L 391.06 310.51 C 390.82 308.20 391.52 305.89 393.01 304.10 C 394.49 302.32 396.63 301.20 398.95 301.02 C 430.26 298.39 468.28 300.32 493.06 300.40 C 525.30 300.57 557.56 300.68 589.84 300.73 Z M 578.13 433.64 C 578.13 432.95 577.86 432.27 577.37 431.78 C 576.88 431.28 576.22 431.00 575.52 430.99 L 549.55 430.76 C 548.10 430.75 546.91 431.92 546.90 433.37 L 546.89 434.28 C 546.88 434.97 547.15 435.64 547.64 436.14 C 548.13 436.64 548.80 436.92 549.49 436.93 L 575.47 437.15 C 576.92 437.17 578.11 436.00 578.12 434.55 L 578.13 433.64 Z" fill="#a7a5bd" fill-rule="nonzero" group-id="1,2" id="形状" node-id="26" stroke="none" target-height="180.69424" target-width="217.7551" target-x="390.81918" target-y="298.38745"></path><path d="M 709.01 305.87 L 706.79 309.81 L 700.79 300.73 C 704.38 300.54 707.12 302.25 709.01 305.87 Z" fill="#a7a5bd" fill-rule="nonzero" group-id="1,2" id="路径" node-id="27" stroke="none" target-height="9.273743" target-width="8.218933" target-x="700.79126" target-y="300.5381"></path><path d="M 589.84 300.73 C 609.56 295.68 608.53 321.48 609.52 333.44 C 611.33 349.06 623.37 432.44 617.53 441.23 C 615.04 444.96 612.05 446.27 608.57 445.18 C 607.75 398.96 603.57 352.99 596.04 307.26 C 595.82 305.95 595.19 304.89 594.15 304.10 L 589.84 300.73 Z" fill="#00303f" fill-rule="nonzero" group-id="1,2" id="路径" node-id="28" stroke="none" target-height="150.59909" target-width="33.533447" target-x="589.835" target-y="295.67517"></path><path d="M 796.34 306.57 L 799.42 306.57 C 802.68 309.36 803.99 312.63 803.36 316.39 C 803.12 317.92 802.28 318.99 800.86 319.59 C 798.67 320.55 796.47 320.32 794.28 318.89 C 791.73 315.11 791.73 311.46 794.28 307.92 L 796.34 306.57 Z" fill="#00303f" fill-rule="nonzero" group-id="1,2" id="路径" node-id="29" stroke="none" target-height="13.985962" target-width="12.259949" target-x="791.73425" target-y="306.56534"></path><path d="M 791.36 307.76 L 794.28 307.92 C 791.73 311.46 791.73 315.11 794.28 318.89 L 790.34 319.06 C 789.16 315.03 789.50 311.26 791.36 307.76 Z" fill="#8a96a0" fill-rule="nonzero" group-id="1,2" id="路径" node-id="30" stroke="none" target-height="11.301086" target-width="5.123169" target-x="789.15894" target-y="307.75708"></path><path d="M 694.63 310.67 L 698.04 312.65 C 698.78 325.80 701.59 338.28 706.46 350.08 C 709.50 357.48 709.46 364.59 710.04 372.32 L 707.98 373.34 L 692.86 314.74 C 692.56 313.62 692.81 312.63 693.60 311.78 L 694.63 310.67 Z" fill="#00303f" fill-rule="nonzero" group-id="1,2" id="路径" node-id="31" stroke="none" target-height="62.66971" target-width="17.479065" target-x="692.55853" target-y="310.67484"></path><path d="M 658.83 327.28 L 660.56 327.28 L 660.07 361.30 C 660.04 362.81 660.64 363.99 661.87 364.84 C 663.90 366.21 666.26 366.76 668.94 366.48 L 667.75 368.37 C 646.75 373.67 657.27 336.65 658.83 327.28 Z" fill="#8a96a0" fill-rule="nonzero" group-id="1,2" id="路径" node-id="32" stroke="none" target-height="46.39612" target-width="22.191223" target-x="646.75146" target-y="327.27716"></path><path d="M 609.52 333.44 L 624.77 334.47 C 626.14 334.55 627.44 334.89 628.67 335.50 C 632.89 337.61 637.35 337.95 642.07 336.52 C 638.04 353.10 633.79 369.59 629.33 386.00 C 626.66 395.82 622.09 401.86 624.85 413.70 C 631.01 440.25 658.75 425.41 675.27 421.80 L 664.67 476.25 L 603.19 476.41 C 589.79 477.04 576.52 476.18 563.37 473.82 C 562.03 473.60 561.23 472.81 560.99 471.44 C 560.49 468.48 558.81 467.05 555.93 467.16 C 535.85 467.99 520.08 468.26 508.63 467.99 C 506.96 467.96 506.33 467.14 506.74 465.52 L 511.96 445.42 L 525.11 445.26 L 608.57 445.18 C 612.05 446.27 615.04 444.96 617.53 441.23 C 623.37 432.44 611.33 349.06 609.52 333.44 Z" fill="#e4f5ff" fill-rule="nonzero" group-id="1,2" id="路径" node-id="33" stroke="none" target-height="143.59924" target-width="168.9411" target-x="506.3302" target-y="333.4414"></path><path d="M 834.19 386.86 L 803.69 351.93 L 794.90 341.00 C 794.43 340.43 794.47 339.88 795.02 339.36 C 795.32 339.09 795.58 338.82 795.80 338.58 C 795.94 338.44 796.06 338.44 796.17 338.58 C 810.99 353.07 823.66 369.17 834.19 386.86 Z" fill="#00303f" fill-rule="nonzero" group-id="1,2" id="路径" node-id="34" stroke="none" target-height="48.423462" target-width="39.75244" target-x="794.4328" target-y="338.44128"></path><path d="M 1103.36 425.90 L 1105.58 444.23 L 1015.33 447.48 L 1035.34 387.97 C 1035.81 386.52 1035.29 385.69 1033.78 385.47 C 1020.47 383.66 1007.13 383.44 993.76 384.81 L 999.92 348.85 C 1004.44 341.41 1026.14 362.25 1030.00 365.87 C 1030.85 366.66 1031.82 366.88 1032.92 366.52 C 1033.33 366.36 1061.69 391.76 1065.43 394.51 C 1066.44 395.28 1067.08 396.29 1067.36 397.55 C 1067.65 398.86 1067.77 399.15 1069.00 399.69 C 1080.34 404.58 1084.70 412.96 1094.36 419.04 C 1097.54 421.07 1100.53 423.36 1103.36 425.90 Z" fill="#f5488a" fill-rule="nonzero" group-id="1,2" id="路径" node-id="35" stroke="none" target-height="106.06595" target-width="111.819214" target-x="993.7567" target-y="341.4138"></path><path d="M 313.72 375.60 L 283.76 359.33 C 282.58 358.73 281.34 358.39 280.02 358.30 C 269.56 357.70 259.47 355.52 249.77 351.77 C 259.19 340.10 319.55 353.17 313.72 375.60 Z" fill="#03cdf1" fill-rule="nonzero" group-id="1,2" id="路径" node-id="36" stroke="none" target-height="35.506012" target-width="69.77913" target-x="249.77477" target-y="340.09875"></path><path d="M 249.77 351.77 C 259.47 355.52 269.56 357.70 280.02 358.30 C 281.34 358.39 282.58 358.73 283.76 359.33 L 313.72 375.60 L 313.47 378.15 C 313.33 379.60 313.66 380.95 314.46 382.18 C 323.20 395.71 328.31 410.49 329.79 426.52 C 330.28 431.59 331.49 431.75 333.40 427.01 C 335.73 421.26 335.50 415.49 332.70 409.71 C 330.28 404.74 331.63 398.76 335.95 395.33 L 363.57 373.43 C 364.99 372.28 366.07 372.55 366.81 374.25 C 367.43 375.69 366.61 377.86 365.33 378.97 C 343.31 397.84 337.59 408.40 337.10 438.07 L 327.86 438.07 C 323.09 408.97 322.06 386.21 293.25 372.36 C 281.38 366.65 258.61 359.50 241.39 355.02 C 239.20 354.44 239.13 353.69 241.19 352.76 C 243.95 351.44 246.82 351.11 249.77 351.77 Z" fill="#381384" fill-rule="nonzero" group-id="1,2" id="路径" node-id="37" stroke="none" target-height="86.95682" target-width="128.29825" target-x="239.1312" target-y="351.11218"></path><path d="M 680.08 370.43 L 675.11 372.65 L 667.75 368.37 L 668.94 366.48 L 676.87 364.92 C 678.71 364.54 679.70 365.28 679.83 367.14 L 680.08 370.43 Z" fill="#00303f" fill-rule="nonzero" group-id="1,2" id="路径" node-id="38" stroke="none" target-height="8.1094055" target-width="12.328491" target-x="667.7509" target-y="364.53653"></path><path d="M 696.52 372.48 L 691.54 372.65 L 687.60 373.51 C 687.13 371.62 687.20 369.55 687.81 367.30 C 688.27 365.47 689.42 364.78 691.26 365.25 L 695.98 366.44 C 697.68 366.88 698.23 367.92 697.63 369.56 L 696.52 372.48 Z" fill="#00303f" fill-rule="nonzero" group-id="1,2" id="路径" node-id="39" stroke="none" target-height="8.7258" target-width="11.095642" target-x="687.13403" target-y="364.7831"></path><path d="M 726.64 366.32 C 730.42 366.77 761.69 365.82 762.39 371.13 C 762.58 372.58 761.94 373.39 760.46 373.55 L 747.43 374.87 C 743.24 375.30 743.08 376.34 746.94 377.99 C 755.00 381.50 763.24 381.66 771.68 378.48 L 781.09 377.62 L 781.95 379.84 L 781.01 436.80 C 781.01 438.30 780.27 439.11 778.79 439.22 L 776.36 439.43 C 775.35 439.48 774.83 439.00 774.80 437.99 L 774.60 431.04 L 773.73 425.74 L 772.83 390.56 C 772.80 388.89 771.97 388.23 770.32 388.59 L 750.15 393.03 C 748.83 393.33 747.50 393.36 746.16 393.11 L 727.67 389.95 C 721.91 386.30 716.43 386.99 711.23 392.00 C 711.12 392.36 711.01 392.70 710.90 393.03 C 704.27 390.48 701.19 385.73 701.65 378.77 C 701.74 377.45 702.37 376.47 703.54 375.81 L 707.98 373.34 L 710.04 372.32 C 716.97 374.40 722.50 372.40 726.64 366.32 Z" fill="#ffa5ab" fill-rule="nonzero" group-id="1,2" id="路径" node-id="40" stroke="none" target-height="73.65576" target-width="80.7652" target-x="701.1885" target-y="365.82416"></path><path d="M 1132.29 367.51 C 1132.33 380.04 1127.73 460.47 1116.71 469.05 L 1105.58 444.23 L 1103.36 425.90 C 1102.53 406.97 1105.55 388.73 1112.40 371.17 C 1112.92 369.80 1113.90 369.06 1115.36 368.95 L 1132.29 367.51 Z" fill="#ffb5bf" fill-rule="nonzero" group-id="1,2" id="路径" node-id="41" stroke="none" target-height="101.54547" target-width="29.793823" target-x="1102.5349" target-y="367.50906"></path><path d="M 680.08 370.43 L 680.24 372.52 C 680.35 373.92 681.12 374.62 682.55 374.62 L 687.27 374.54 C 682.28 376.23 677.20 376.63 672.02 375.73 C 672.52 375.65 673.02 375.58 673.55 375.52 C 674.42 375.39 674.90 374.87 674.98 373.96 C 675.01 373.52 675.05 373.08 675.11 372.65 L 680.08 370.43 Z" fill="#8a96a0" fill-rule="nonzero" group-id="1,2" id="路径" node-id="42" stroke="none" target-height="6.2053223" target-width="15.246155" target-x="672.02484" target-y="370.4268"></path><path d="M 691.54 372.65 L 693.76 378.65 C 693.24 384.37 694.34 390.45 697.05 396.89 C 697.37 397.64 697.23 398.50 696.69 399.10 C 696.16 399.71 695.32 399.95 694.54 399.73 C 691.34 398.82 689.65 383.54 687.76 379.80 C 687.16 378.59 686.20 378.07 684.89 378.23 L 650.90 382.34 C 649.86 382.45 649.37 381.99 649.42 380.95 C 649.42 380.51 649.42 380.03 649.42 379.51 C 649.40 378.66 649.81 378.18 650.66 378.07 L 672.02 375.73 C 677.20 376.63 682.28 376.23 687.27 374.54 C 687.38 374.21 687.49 373.87 687.60 373.51 L 691.54 372.65 Z" fill="#525dca" fill-rule="nonzero" group-id="1,2" id="路径" node-id="43" stroke="none" target-height="27.304688" target-width="48.00055" target-x="649.3678" target-y="372.64594"></path><path d="M 691.54 372.65 L 696.52 372.48 L 693.76 378.65 Z" fill="#8a96a0" fill-rule="nonzero" group-id="1,2" id="路径" node-id="44" stroke="none" target-height="6.1642456" target-width="4.972534" target-x="691.54486" target-y="372.48154"></path><path d="M 781.95 379.84 L 783.84 379.67 L 785.04 476.08 L 775.01 475.79 L 774.60 431.04 L 774.80 437.99 C 774.83 439.00 775.35 439.48 776.36 439.43 L 778.79 439.22 C 780.27 439.11 781.01 438.30 781.01 436.80 L 781.95 379.84 Z" fill="#8a96a0" fill-rule="nonzero" group-id="1,2" id="路径" node-id="45" stroke="none" target-height="96.4086" target-width="10.43811" target-x="774.59766" target-y="379.67316"></path><path d="M 1015.33 447.48 C 1012.56 455.29 1007.37 460.82 999.76 464.08 C 982.63 466.30 965.55 468.81 948.51 471.60 C 943.74 472.38 936.35 470.90 931.46 473.70 C 929.27 474.96 929.42 475.75 931.91 476.08 L 939.14 477.11 C 897.69 478.73 856.25 478.73 814.83 477.11 C 814.83 476.89 814.83 476.66 814.83 476.41 L 843.39 476.25 C 844.76 476.25 846.01 475.86 847.13 475.10 C 864.55 463.40 883.58 456.86 904.21 455.49 C 928.09 453.89 957.22 438.40 979.70 429.48 C 980.96 428.96 981.77 428.04 982.13 426.73 L 993.76 384.81 C 1007.13 383.44 1020.47 383.66 1033.78 385.47 C 1035.29 385.69 1035.81 386.52 1035.34 387.97 L 1015.33 447.48 Z" fill="#ffb5bf" fill-rule="nonzero" group-id="1,2" id="路径" node-id="46" stroke="none" target-height="95.28537" target-width="220.98096" target-x="814.8296" target-y="383.4402"></path><path d="M 525.11 445.26 L 511.96 445.42 C 515.08 425.84 519.75 406.62 525.97 387.77 C 526.47 386.26 526.70 386.30 526.67 387.89 L 526.43 441.69 C 526.43 442.62 526.18 443.49 525.69 444.32 L 525.11 445.26 Z" fill="#00303f" fill-rule="nonzero" group-id="1,2" id="路径" node-id="47" stroke="none" target-height="59.162964" target-width="14.73938" target-x="511.9602" target-y="386.26202"></path><path d="M 727.67 389.95 L 726.64 427.96 L 726.31 449.53 C 725.54 451.37 724.38 452.41 722.82 452.66 C 721.34 452.88 720.56 452.25 720.48 450.77 C 719.74 439.14 716.86 391.47 711.23 392.00 C 716.43 386.99 721.91 386.30 727.67 389.95 Z" fill="#d3e6ff" fill-rule="nonzero" group-id="1,2" id="路径" node-id="48" stroke="none" target-height="66.57373" target-width="16.437927" target-x="711.2294" target-y="386.30313"></path><path d="M 773.73 425.74 L 731.78 425.66 C 730.52 425.66 729.38 426.01 728.37 426.73 L 726.64 427.96 L 727.67 389.95 L 746.16 393.11 C 747.50 393.36 748.83 393.33 750.15 393.03 L 770.32 388.59 C 771.97 388.23 772.80 388.89 772.83 390.56 L 773.73 425.74 Z" fill="#477cf3" fill-rule="nonzero" group-id="1,2" id="路径" node-id="49" stroke="none" target-height="39.725067" target-width="47.094727" target-x="726.63995" target-y="388.2346"></path><path d="M 399.11 389.17 C 401.44 405.41 403.44 421.01 405.11 435.97 C 406.76 450.73 450.89 445.51 462.52 445.51 C 465.98 445.51 467.26 447.18 466.39 450.52 L 460.06 474.23 C 459.73 475.44 458.93 476.05 457.67 476.08 L 441.89 476.41 L 350.46 477.11 L 358.47 442.43 C 358.91 440.45 358.13 439.41 356.13 439.30 L 352.51 439.10 C 361.25 415.84 376.79 399.19 399.11 389.17 Z" fill="#e4f5ff" fill-rule="nonzero" group-id="1,2" id="路径" node-id="50" stroke="none" target-height="87.943054" target-width="116.80539" target-x="350.45728" target-y="389.16608"></path><path d="M 711.23 392.00 C 716.86 391.47 719.74 439.14 720.48 450.77 C 720.56 452.25 721.34 452.88 722.82 452.66 C 724.38 452.41 725.54 451.37 726.31 449.53 L 726.43 474.85 C 726.43 475.36 726.64 475.84 727.00 476.20 C 727.37 476.56 727.86 476.75 728.37 476.74 L 775.01 475.79 L 785.04 476.08 L 814.83 477.11 C 856.25 478.73 897.69 478.73 939.14 477.11 L 998.56 477.27 L 998.56 509.12 L 529.06 510.19 C 521.88 500.03 521.15 489.33 526.88 478.10 L 603.19 476.41 L 664.67 476.25 L 674.08 476.41 L 716.37 476.99 C 717.68 476.99 718.33 476.33 718.30 475.01 C 718.02 447.48 715.56 420.15 710.90 393.03 C 711.01 392.70 711.12 392.36 711.23 392.00 Z" fill="#372c47" fill-rule="nonzero" group-id="1,2" id="路径" node-id="51" stroke="none" target-height="118.723145" target-width="477.4131" target-x="521.15173" target-y="391.46738"></path><path d="M 674.08 476.41 L 664.67 476.25 L 675.27 421.80 C 676.83 417.55 679.52 415.34 683.33 415.18 C 684.45 415.13 685.53 415.64 686.21 416.55 C 686.88 417.47 687.06 418.66 686.70 419.74 C 680.23 438.26 676.02 457.15 674.08 476.41 Z" fill="#b7d6ff" fill-rule="nonzero" group-id="1,2" id="路径" node-id="52" stroke="none" target-height="61.28369" target-width="22.394836" target-x="664.6688" target-y="415.12683"></path><path d="M 773.73 425.74 L 774.60 431.04 L 775.01 475.79 L 728.37 476.74 C 727.86 476.75 727.37 476.56 727.00 476.20 C 726.64 475.84 726.43 475.36 726.43 474.85 L 726.31 449.53 L 726.64 427.96 L 728.37 426.73 C 729.38 426.01 730.52 425.66 731.78 425.66 L 773.73 425.74 Z" fill="#00303f" fill-rule="nonzero" group-id="1,2" id="路径" node-id="53" stroke="none" target-height="51.09201" target-width="48.69745" target-x="726.31116" target-y="425.65833"></path><g node-id="107"><path d="M 547.56 430.75 L 577.51 431.01 L 577.96 431.20 L 578.14 431.65 L 578.10 436.54 L 577.91 436.99 L 577.46 437.17 L 547.50 436.91 L 547.05 436.72 L 546.87 436.27 L 546.91 431.38 L 547.10 430.93 L 547.56 430.75 Z" fill="#525dca" fill-rule="nonzero" group-id="1,2,3" id="矩形" node-id="54" stroke="none" target-height="6.425415" target-width="31.27356" target-x="546.8702" target-y="430.7468"></path></g><path d="M 327.86 438.07 L 337.10 438.07 L 338.29 439.26 C 342.90 451.92 343.53 464.88 340.18 478.14 L 322.72 478.47 L 316.55 477.11 C 317.07 465.49 315.36 454.03 311.42 442.71 C 311.08 441.79 311.26 440.76 311.89 440.01 C 312.51 439.26 313.49 438.89 314.46 439.06 C 318.73 439.77 323.20 439.44 327.86 438.07 Z" fill="#f95b97" fill-rule="nonzero" group-id="1,2" id="路径" node-id="55" stroke="none" target-height="40.39627" target-width="32.443726" target-x="311.08218" target-y="438.069"></path><path d="M 338.29 439.26 L 352.51 439.10 L 356.13 439.30 C 358.13 439.41 358.91 440.45 358.47 442.43 L 350.46 477.11 L 340.18 478.14 C 343.53 464.88 342.90 451.92 338.29 439.26 Z" fill="#f5488a" fill-rule="nonzero" group-id="1,2" id="路径" node-id="56" stroke="none" target-height="39.04013" target-width="20.615936" target-x="338.29318" target-y="439.09637"></path><path d="M 1105.58 444.23 L 1116.71 469.05 L 1119.96 477.44 L 1128.34 511.18 L 1131.10 537.89 C 1129.92 538.71 1129.23 540.03 1129.04 541.83 C 1128.90 543.34 1128.07 544.08 1126.53 544.05 C 1110.43 543.78 1094.51 545.70 1078.78 549.81 C 1079.06 547.50 1078.59 545.35 1077.38 543.35 C 1076.67 542.15 1075.92 542.12 1075.12 543.27 C 1074.58 544.09 1074.49 545.22 1074.88 546.64 L 1004.44 551.82 C 1003.18 551.90 1002.44 551.33 1002.22 550.09 L 998.89 529.67 L 998.56 509.12 L 998.56 477.27 L 999.76 464.08 C 1007.37 460.82 1012.56 455.29 1015.33 447.48 L 1105.58 444.23 Z" fill="#381384" fill-rule="nonzero" group-id="1,2" id="路径" node-id="57" stroke="none" target-height="107.66864" target-width="132.531" target-x="998.5648" target-y="444.23322"></path><path d="M 999.76 464.08 L 998.56 477.27 L 939.14 477.11 L 931.91 476.08 C 929.42 475.75 929.27 474.96 931.46 473.70 C 936.35 470.90 943.74 472.38 948.51 471.60 C 965.55 468.81 982.63 466.30 999.76 464.08 Z" fill="#ffffff" fill-rule="nonzero" group-id="1,2" id="路径" node-id="58" stroke="none" target-height="13.191467" target-width="70.491455" target-x="929.26514" target-y="464.08206"></path><path d="M 441.89 476.41 C 470.41 478.52 498.74 479.08 526.88 478.10 C 521.15 489.33 521.88 500.03 529.06 510.19 C 528.54 510.08 527.91 510.12 527.17 510.31 L 323.95 510.23 L 329.70 481.10 C 329.90 480.11 329.50 479.53 328.51 479.37 L 322.72 478.47 L 340.18 478.14 L 350.46 477.11 L 441.89 476.41 Z" fill="#594e66" fill-rule="nonzero" group-id="1,2" id="路径" node-id="59" stroke="none" target-height="33.90329" target-width="206.33746" target-x="322.7182" target-y="476.41052"></path><path d="M 1168.08 510.15 L 1128.34 511.18 L 1119.96 477.44 L 1181.19 476.12 C 1182.83 476.10 1183.66 476.89 1183.66 478.51 L 1183.66 508.05 C 1183.66 509.97 1182.72 510.70 1180.86 510.23 C 1176.29 509.11 1172.03 509.08 1168.08 510.15 Z" fill="#594e66" fill-rule="nonzero" group-id="1,2" id="路径" node-id="60" stroke="none" target-height="35.08136" target-width="63.697144" target-x="1119.9591" target-y="476.09546"></path><path d="M 316.55 477.11 L 322.72 478.47 L 328.51 479.37 C 329.50 479.53 329.90 480.11 329.70 481.10 L 323.95 510.23 L 253.88 510.31 L 219.28 509.45 C 217.69 509.42 216.90 508.62 216.90 507.03 L 216.90 479.37 C 216.90 477.97 217.61 477.27 219.04 477.27 L 316.55 477.11 Z" fill="#372c47" fill-rule="nonzero" group-id="1,2" id="路径" node-id="61" stroke="none" target-height="33.20468" target-width="112.99727" target-x="216.89885" target-y="477.10913"></path><path d="M 527.17 510.31 C 524.75 533.82 524.21 557.66 525.52 581.82 C 525.60 583.27 526.37 584.04 527.82 584.12 C 550.10 585.44 572.42 585.74 594.81 585.02 C 608.20 584.61 611.94 580.75 622.96 574.09 C 637.37 565.33 654.38 560.68 674.00 560.16 C 541.26 593.94 538.88 777.18 674.08 806.61 C 640.34 811.66 625.38 785.65 596.08 785.32 C 573.15 785.02 550.21 785.17 527.25 785.77 C 525.74 785.80 524.99 786.57 524.99 788.07 L 525.27 889.25 L 524.08 891.47 L 291.03 890.28 L 302.13 806.03 C 302.40 804.01 301.51 803.10 299.46 803.32 C 285.71 804.69 271.54 804.51 256.97 802.79 L 274.02 778.95 C 285.80 775.28 299.94 768.12 316.43 757.46 C 323.46 752.90 355.80 730.58 333.20 723.43 C 308.38 715.58 281.29 748.62 272.38 767.86 L 258.36 790.09 C 256.03 793.81 254.95 793.49 255.12 789.10 C 256.57 755.24 266.29 726.98 284.29 704.32 C 317.80 693.88 348.90 679.19 377.58 660.23 C 389.13 652.58 396.77 644.24 400.76 631.79 C 401.58 629.19 400.28 626.38 397.76 625.34 C 350.17 605.61 309.12 643.75 289.84 684.64 C 280.17 699.19 271.20 714.13 262.93 729.47 C 256.23 741.84 254.67 754.71 252.82 768.27 C 252.69 768.89 252.12 769.33 251.49 769.31 C 250.85 769.29 250.32 768.82 250.23 768.18 C 247.93 745.36 249.34 723.03 254.46 701.20 C 279.28 671.01 299.92 638.49 316.39 603.64 C 324.69 587.74 347.99 526.26 315.77 521.25 C 279.73 515.62 270.73 534.23 254.05 560.49 L 253.88 510.31 L 323.95 510.23 L 527.17 510.31 Z M 527.62 622.13 C 526.85 622.13 526.22 622.76 526.22 623.53 L 525.97 663.89 C 525.97 664.66 526.60 665.28 527.37 665.28 L 556.38 665.28 C 556.98 665.28 557.51 664.90 557.70 664.34 L 571.18 623.98 C 571.32 623.56 571.26 623.09 570.99 622.72 C 570.73 622.35 570.31 622.14 569.86 622.13 L 527.62 622.13 Z M 556.01 703.38 L 528.69 702.31 C 526.93 702.25 526.06 703.10 526.06 704.86 L 526.01 744.64 C 526.01 746.28 526.84 747.13 528.48 747.18 L 570.36 748.62 C 572.79 748.71 573.47 747.65 572.37 745.46 C 566.21 732.91 561.79 719.77 559.14 706.05 C 558.81 704.32 557.77 703.43 556.01 703.38 Z" fill="#8a96a0" fill-rule="nonzero" group-id="1,2" id="形状" node-id="62" stroke="none" target-height="381.23737" target-width="426.15402" target-x="247.9255" target-y="510.23163"></path><path d="M 998.56 509.12 L 998.89 529.67 L 998.56 585.15 L 775.79 585.31 C 745.43 563.81 711.50 555.42 674.00 560.16 C 654.38 560.68 637.37 565.33 622.96 574.09 C 611.94 580.75 608.20 584.61 594.81 585.02 C 572.42 585.74 550.10 585.44 527.82 584.12 C 526.37 584.04 525.60 583.27 525.52 581.82 C 524.21 557.66 524.75 533.82 527.17 510.31 C 527.91 510.12 528.54 510.08 529.06 510.19 L 998.56 509.12 Z" fill="#c0c6cd" fill-rule="nonzero" group-id="1,2" id="路径" node-id="63" stroke="none" target-height="76.61456" target-width="474.68713" target-x="524.2065" target-y="509.12207"></path><path d="M 1168.08 510.15 L 1166.19 583.96 L 1131.84 584.98 L 1131.10 537.89 L 1128.34 511.18 Z" fill="#c0c6cd" fill-rule="nonzero" group-id="1,2" id="路径" node-id="64" stroke="none" target-height="74.83377" target-width="39.73877" target-x="1128.3425" target-y="510.14944"></path><path d="M 316.39 603.64 C 307.29 595.39 296.73 589.86 284.71 587.04 C 286.80 581.90 307.10 539.70 305.34 538.55 C 304.02 537.67 302.99 537.93 302.25 539.33 C 277.92 585.85 260.20 634.83 249.08 686.28 C 243.13 643.68 244.79 601.75 254.05 560.49 C 270.73 534.23 279.73 515.62 315.77 521.25 C 347.99 526.26 324.69 587.74 316.39 603.64 Z" fill="#02b0f4" fill-rule="nonzero" group-id="1,2" id="路径" node-id="65" stroke="none" target-height="170.66711" target-width="104.86049" target-x="243.13109" target-y="515.61505"></path><path d="M 998.89 529.67 L 1002.22 550.09 C 1002.44 551.33 1003.18 551.90 1004.44 551.82 L 1074.88 546.64 C 1070.28 596.49 1059.76 645.15 1065.34 695.08 L 1063.12 706.50 C 1062.88 707.76 1062.11 708.39 1060.82 708.39 C 1043.26 708.47 1026.04 710.88 1009.17 715.62 L 1007.81 703.30 L 1003.00 663.23 L 998.73 621.27 C 1000.54 609.22 1000.48 597.17 998.56 585.15 L 998.89 529.67 Z" fill="#4943b0" fill-rule="nonzero" group-id="1,2" id="路径" node-id="66" stroke="none" target-height="185.9544" target-width="76.31323" target-x="998.5648" target-y="529.6695"></path><path d="M 284.71 587.04 C 268.95 623.56 258.87 661.61 254.46 701.20 C 249.34 723.03 247.93 745.36 250.23 768.18 C 250.32 768.82 250.85 769.29 251.49 769.31 C 252.12 769.33 252.69 768.89 252.82 768.27 C 254.67 754.71 256.23 741.84 262.93 729.47 C 271.20 714.13 280.17 699.19 289.84 684.64 L 291.49 684.80 C 292.91 684.94 294.13 684.50 295.14 683.49 C 319.14 659.95 347.09 642.76 378.98 631.91 C 379.51 631.75 380.07 631.78 380.58 632.00 C 383.84 633.37 383.92 634.61 380.83 635.74 C 342.31 649.65 310.13 672.52 284.29 704.32 C 266.29 726.98 256.57 755.24 255.12 789.10 C 254.95 793.49 256.03 793.81 258.36 790.09 L 272.38 767.86 L 274.27 768.02 C 275.69 768.16 276.92 767.72 277.97 766.70 C 292.92 751.94 309.84 739.82 328.72 730.34 C 329.18 730.09 329.59 730.16 329.95 730.54 C 330.17 730.82 330.46 731.09 330.81 731.36 C 332.07 732.40 331.99 733.31 330.57 734.08 C 309.20 745.72 290.35 760.68 274.02 778.95 L 256.97 802.79 L 245.67 803.81 C 242.84 778.53 229.15 762.77 204.57 756.55 C 189.23 749.21 173.02 745.76 155.96 746.20 C 154.59 746.22 153.45 745.19 153.37 743.86 L 153.20 741.80 C 153.09 740.46 153.72 739.80 155.09 739.83 L 178.89 740.12 C 203.57 746.66 224.93 758.81 242.95 776.57 C 243.75 777.33 244.09 777.17 243.98 776.07 C 241.54 751.34 233.88 728.39 221.01 707.24 L 221.30 704.86 C 221.38 704.23 221.27 703.62 220.97 703.05 C 207.54 675.38 188.05 652.98 162.49 635.86 C 161.69 635.34 161.63 634.75 162.28 634.09 L 163.35 633.06 C 164.37 632.02 165.46 631.94 166.64 632.82 C 182.61 644.90 197.39 658.31 210.98 673.05 C 224.82 697.13 235.73 722.68 243.73 749.69 C 244.42 752.02 244.84 751.98 245.01 749.57 L 249.08 686.28 C 260.20 634.83 277.92 585.85 302.25 539.33 C 302.99 537.93 304.02 537.67 305.34 538.55 C 307.10 539.70 286.80 581.90 284.71 587.04 Z" fill="#0d2f33" fill-rule="nonzero" group-id="1,2" id="路径" node-id="67" stroke="none" target-height="266.14423" target-width="230.83003" target-x="153.09218" target-y="537.6693"></path><path d="M 1131.10 537.89 L 1131.84 584.98 L 1135.25 622.79 L 1138.62 665.28 L 1144.78 704.32 L 1145.81 709.46 L 1145.48 714.76 C 1145.37 716.21 1144.60 717.05 1143.18 717.27 C 1138.62 717.88 1105.53 719.49 1102.00 728.94 C 1101.73 729.68 1101.48 729.66 1101.26 728.90 L 1088.89 680.73 C 1088.67 679.83 1088.33 679.78 1087.86 680.57 C 1082.66 689.20 1076.65 690.31 1069.82 683.90 C 1066.45 669.63 1065.44 657.34 1066.78 647.04 C 1071.00 614.98 1075.00 582.57 1078.78 549.81 C 1094.51 545.70 1110.43 543.78 1126.53 544.05 C 1128.07 544.08 1128.90 543.34 1129.04 541.83 C 1129.23 540.03 1129.92 538.71 1131.10 537.89 Z" fill="#4943b0" fill-rule="nonzero" group-id="1,2" id="路径" node-id="68" stroke="none" target-height="191.78986" target-width="80.36792" target-x="1065.44" target-y="537.8885"></path><path d="M 1078.78 549.81 C 1075.00 582.57 1071.00 614.98 1066.78 647.04 C 1065.44 657.34 1066.45 669.63 1069.82 683.90 C 1070.28 687.43 1068.47 701.20 1072.82 701.32 C 1074.22 701.38 1075.12 702.08 1075.54 703.42 L 1090.00 749.53 L 1076.48 746.24 C 1075.50 746.00 1074.46 746.26 1073.70 746.92 C 1072.95 747.59 1072.57 748.58 1072.70 749.57 L 1076.48 782.49 C 1076.67 784.16 1077.60 785.09 1079.28 785.28 C 1086.07 785.99 1092.73 785.38 1099.25 783.43 L 1129.37 877.46 C 1129.81 878.83 1130.75 879.54 1132.21 879.59 L 1175.44 881.20 L 1177.49 897.30 C 1167.71 908.15 1155.38 911.92 1140.51 908.61 C 1148.01 904.39 1150.56 898.39 1148.15 890.61 C 1147.71 889.24 1146.78 888.56 1145.36 888.59 L 1110.88 889.46 L 1065.59 889.37 C 1064.11 889.37 1063.19 890.09 1062.84 891.51 L 1061.28 898.29 C 1050.18 907.99 1037.55 911.77 1023.39 909.63 C 1023.93 907.52 1024.91 905.76 1026.30 904.33 C 1027.32 903.26 1028.39 902.26 1029.51 901.33 C 1033.32 898.15 1034.36 894.81 1032.63 891.30 C 1031.97 889.96 1030.91 889.29 1029.43 889.29 L 646.26 889.41 L 525.27 889.25 L 524.99 788.07 C 524.99 786.57 525.74 785.80 527.25 785.77 C 550.21 785.17 573.15 785.02 596.08 785.32 C 625.38 785.65 640.34 811.66 674.08 806.61 C 709.89 812.50 742.76 805.40 772.71 785.32 L 1015.00 785.49 L 1025.52 878.32 C 1025.71 879.86 1027.03 881.02 1028.61 881.03 L 1077.63 881.03 C 1079.13 881.01 1080.33 879.79 1080.30 878.32 C 1080.22 857.69 1074.80 835.37 1073.77 817.42 C 1071.41 776.60 1068.60 735.82 1065.34 695.08 C 1059.76 645.15 1070.28 596.49 1074.88 546.64 C 1074.49 545.22 1074.58 544.09 1075.12 543.27 C 1075.92 542.12 1076.67 542.15 1077.38 543.35 C 1078.59 545.35 1079.06 547.50 1078.78 549.81 Z" fill="#c0c6cd" fill-rule="nonzero" group-id="1,2" id="路径" node-id="69" stroke="none" target-height="369.79926" target-width="652.50476" target-x="524.9873" target-y="542.1213"></path><path d="M 775.79 585.31 C 788.45 597.48 799.42 610.06 808.71 623.08 L 822.19 664.26 L 822.19 704.32 C 818.38 718.87 813.24 732.91 806.77 746.45 C 797.08 760.86 785.72 773.81 772.71 785.32 C 742.76 805.40 709.89 812.50 674.08 806.61 C 538.88 777.18 541.26 593.94 674.00 560.16 C 711.50 555.42 745.43 563.81 775.79 585.31 Z M 646.96 657.10 L 610.79 657.10 C 610.02 657.10 609.40 657.73 609.40 658.50 L 609.36 702.43 C 609.36 704.27 610.27 705.19 612.11 705.19 L 634.01 705.19 L 673.01 705.31 C 674.17 705.31 675.11 706.25 675.11 707.40 L 675.11 770.07 C 675.11 771.44 675.79 772.12 677.16 772.09 L 720.31 771.14 C 721.68 771.12 722.37 770.42 722.37 769.05 L 722.37 707.45 C 722.37 706.10 723.04 705.43 724.38 705.43 L 786.93 705.19 C 787.50 705.19 788.06 704.95 788.47 704.54 C 788.87 704.12 789.10 703.56 789.10 702.97 L 789.15 659.61 C 789.15 657.86 788.28 656.98 786.56 656.98 L 724.50 657.23 C 723.08 657.26 722.37 656.54 722.37 655.09 L 722.37 594.89 C 722.37 592.50 721.17 591.31 718.79 591.31 L 677.16 591.31 C 675.79 591.31 675.11 592.00 675.11 593.37 L 675.11 654.97 C 675.11 656.56 674.31 657.34 672.72 657.31 L 646.96 657.10 Z" fill="#ffffff" fill-rule="nonzero" group-id="1,2" id="形状" node-id="70" stroke="none" target-height="257.076" target-width="283.30817" target-x="538.8774" target-y="555.4223"></path><path d="M 1166.19 583.96 L 1167.05 625.22 L 1163.11 622.50 C 1161.99 621.74 1160.74 621.39 1159.37 621.48 L 1135.25 622.79 L 1131.84 584.98 L 1166.19 583.96 Z" fill="#8a96a0" fill-rule="nonzero" group-id="1,2" id="路径" node-id="71" stroke="none" target-height="41.259277" target-width="35.218384" target-x="1131.8356" target-y="583.9559"></path><path d="M 775.79 585.31 L 998.56 585.15 C 1000.48 597.17 1000.54 609.22 998.73 621.27 L 808.71 623.08 C 799.42 610.06 788.45 597.48 775.79 585.31 Z" fill="#8a96a0" fill-rule="nonzero" group-id="1,2" id="路径" node-id="72" stroke="none" target-height="37.930542" target-width="224.74799" target-x="775.7894" target-y="585.14764"></path><path d="M 284.71 587.04 C 296.73 589.86 307.29 595.39 316.39 603.64 C 299.92 638.49 279.28 671.01 254.46 701.20 C 258.87 661.61 268.95 623.56 284.71 587.04 Z" fill="#0190f4" fill-rule="nonzero" group-id="1,2" id="路径" node-id="73" stroke="none" target-height="114.16162" target-width="61.930008" target-x="254.45958" target-y="587.03796"></path><path d="M 634.01 705.19 L 643.38 704.32 C 644.61 704.24 645.35 703.60 645.60 702.39 C 648.78 687.41 649.23 672.31 646.96 657.10 L 672.72 657.31 C 674.31 657.34 675.11 656.56 675.11 654.97 L 675.11 593.37 C 675.11 592.00 675.79 591.31 677.16 591.31 L 718.79 591.31 C 721.17 591.31 722.37 592.50 722.37 594.89 L 722.37 655.09 C 722.37 656.54 723.08 657.26 724.50 657.23 L 786.56 656.98 C 788.28 656.98 789.15 657.86 789.15 659.61 L 789.10 702.97 C 789.10 703.56 788.87 704.12 788.47 704.54 C 788.06 704.95 787.50 705.19 786.93 705.19 L 724.38 705.43 C 723.04 705.43 722.37 706.10 722.37 707.45 L 722.37 769.05 C 722.37 770.42 721.68 771.12 720.31 771.14 L 677.16 772.09 C 675.79 772.12 675.11 771.44 675.11 770.07 L 675.11 707.40 C 675.11 706.25 674.17 705.31 673.01 705.31 L 634.01 705.19 Z" fill="#f95b97" fill-rule="nonzero" group-id="1,2" id="路径" node-id="74" stroke="none" target-height="180.8039" target-width="155.13324" target-x="634.012" target-y="591.3118"></path><path d="M 284.29 704.32 C 310.13 672.52 342.31 649.65 380.83 635.74 C 383.92 634.61 383.84 633.37 380.58 632.00 C 380.07 631.78 379.51 631.75 378.98 631.91 C 347.09 642.76 319.14 659.95 295.14 683.49 C 294.13 684.50 292.91 684.94 291.49 684.80 L 289.84 684.64 C 309.12 643.75 350.17 605.61 397.76 625.34 C 400.28 626.38 401.58 629.19 400.76 631.79 C 396.77 644.24 389.13 652.58 377.58 660.23 C 348.90 679.19 317.80 693.88 284.29 704.32 Z" fill="#02b0f4" fill-rule="nonzero" group-id="1,2" id="路径" node-id="75" stroke="none" target-height="98.70996" target-width="117.289795" target-x="284.2945" target-y="605.61285"></path><path d="M 998.73 621.27 L 1003.00 663.23 C 1001.41 664.41 1000.25 665.01 999.51 665.04 C 940.39 665.83 881.28 665.57 822.19 664.26 L 808.71 623.08 L 998.73 621.27 Z" fill="#c0c6cd" fill-rule="nonzero" group-id="1,2" id="路径" node-id="76" stroke="none" target-height="44.560608" target-width="194.29669" target-x="808.7064" target-y="621.27"></path><path d="M 1167.05 625.22 L 1166.03 665.28 L 1138.62 665.28 L 1135.25 622.79 L 1159.37 621.48 C 1160.74 621.39 1161.99 621.74 1163.11 622.50 L 1167.05 625.22 Z" fill="#c0c6cd" fill-rule="nonzero" group-id="1,2" id="路径" node-id="77" stroke="none" target-height="43.889343" target-width="31.807495" target-x="1135.2465" target-y="621.3933"></path><path d="M 527.62 622.13 L 569.86 622.13 C 570.31 622.14 570.73 622.35 570.99 622.72 C 571.26 623.09 571.32 623.56 571.18 623.98 L 557.70 664.34 C 557.51 664.90 556.98 665.28 556.38 665.28 L 527.37 665.28 C 526.60 665.28 525.97 664.66 525.97 663.89 L 526.22 623.53 C 526.22 622.76 526.85 622.13 527.62 622.13 Z" fill="#c0c6cd" fill-rule="nonzero" group-id="1,2" id="路径" node-id="78" stroke="none" target-height="43.14966" target-width="45.349915" target-x="525.9736" target-y="622.133"></path><path d="M 210.98 673.05 C 197.39 658.31 182.61 644.90 166.64 632.82 C 165.46 631.94 164.37 632.02 163.35 633.06 L 162.28 634.09 C 161.63 634.75 161.69 635.34 162.49 635.86 C 188.05 652.98 207.54 675.38 220.97 703.05 C 221.27 703.62 221.38 704.23 221.30 704.86 L 221.01 707.24 C 202.23 696.06 139.43 652.63 150.24 627.48 C 150.76 626.24 151.67 625.38 152.96 624.89 C 180.04 614.57 203.13 652.01 210.98 673.05 Z" fill="#02b0f4" fill-rule="nonzero" group-id="1,2" id="路径" node-id="79" stroke="none" target-height="92.668945" target-width="81.94322" target-x="139.43498" target-y="614.5716"></path><path d="M 646.96 657.10 C 649.23 672.31 648.78 687.41 645.60 702.39 C 645.35 703.60 644.61 704.24 643.38 704.32 L 634.01 705.19 L 612.11 705.19 C 610.27 705.19 609.36 704.27 609.36 702.43 L 609.40 658.50 C 609.40 657.73 610.02 657.10 610.79 657.10 L 646.96 657.10 Z" fill="#f5488a" fill-rule="nonzero" group-id="1,2" id="路径" node-id="80" stroke="none" target-height="48.080994" target-width="39.875732" target-x="609.3551" target-y="657.1048"></path><path d="M 1003.00 663.23 L 1007.81 703.30 C 957.47 701.45 907.33 703.42 857.03 701.94 C 845.39 701.61 833.77 702.41 822.19 704.32 L 822.19 664.26 C 881.28 665.57 940.39 665.83 999.51 665.04 C 1000.25 665.01 1001.41 664.41 1003.00 663.23 Z" fill="#8a96a0" fill-rule="nonzero" group-id="1,2" id="路径" node-id="81" stroke="none" target-height="41.09491" target-width="185.62567" target-x="822.18555" target-y="663.2279"></path><path d="M 1138.62 665.28 L 1166.03 665.28 L 1167.05 702.27 L 1144.78 704.32 Z" fill="#8a96a0" fill-rule="nonzero" group-id="1,2" id="路径" node-id="82" stroke="none" target-height="39.04016" target-width="28.437744" target-x="1138.6162" target-y="665.28265"></path><path d="M 1145.81 709.46 L 1165.00 785.77 L 1183.82 877.95 C 1182.04 880.99 1179.25 882.07 1175.44 881.20 L 1132.21 879.59 C 1130.75 879.54 1129.81 878.83 1129.37 877.46 L 1099.25 783.43 L 1090.00 749.53 L 1075.54 703.42 C 1075.12 702.08 1074.22 701.38 1072.82 701.32 C 1068.47 701.20 1070.28 687.43 1069.82 683.90 C 1076.65 690.31 1082.66 689.20 1087.86 680.57 C 1088.33 679.78 1088.67 679.83 1088.89 680.73 L 1101.26 728.90 C 1101.48 729.66 1101.73 729.68 1102.00 728.94 C 1105.53 719.49 1138.62 717.88 1143.18 717.27 C 1144.60 717.05 1145.37 716.21 1145.48 714.76 L 1145.81 709.46 Z" fill="#477cf3" fill-rule="nonzero" group-id="1,2" id="路径" node-id="83" stroke="none" target-height="202.29651" target-width="115.35339" target-x="1068.4673" target-y="679.77545"></path><path d="M 1065.34 695.08 C 1068.60 735.82 1071.41 776.60 1073.77 817.42 C 1074.80 835.37 1080.22 857.69 1080.30 878.32 C 1080.33 879.79 1079.13 881.01 1077.63 881.03 L 1028.61 881.03 C 1027.03 881.02 1025.71 879.86 1025.52 878.32 L 1015.00 785.49 L 1011.92 748.50 L 1009.17 715.62 C 1026.04 710.88 1043.26 708.47 1060.82 708.39 C 1062.11 708.39 1062.88 707.76 1063.12 706.50 L 1065.34 695.08 Z" fill="#477cf3" fill-rule="nonzero" group-id="1,2" id="路径" node-id="84" stroke="none" target-height="185.9544" target-width="71.157715" target-x="1009.16736" target-y="695.0765"></path><path d="M 528.69 702.31 L 556.01 703.38 C 557.77 703.43 558.81 704.32 559.14 706.05 C 561.79 719.77 566.21 732.91 572.37 745.46 C 573.47 747.65 572.79 748.71 570.36 748.62 L 528.48 747.18 C 526.84 747.13 526.01 746.28 526.01 744.64 L 526.06 704.86 C 526.06 703.10 526.93 702.25 528.69 702.31 Z" fill="#c0c6cd" fill-rule="nonzero" group-id="1,2" id="路径" node-id="85" stroke="none" target-height="46.450928" target-width="47.450928" target-x="526.01465" target-y="702.2544"></path><path d="M 1007.81 703.30 L 1009.17 715.62 L 1011.92 748.50 C 961.21 746.91 910.50 746.88 859.79 748.42 C 842.09 748.94 824.42 748.28 806.77 746.45 C 813.24 732.91 818.38 718.87 822.19 704.32 C 833.77 702.41 845.39 701.61 857.03 701.94 C 907.33 703.42 957.47 701.45 1007.81 703.30 Z" fill="#c0c6cd" fill-rule="nonzero" group-id="1,2" id="路径" node-id="86" stroke="none" target-height="47.492004" target-width="205.14569" target-x="806.77496" target-y="701.44617"></path><path d="M 1167.05 702.27 C 1167.82 729.86 1167.14 757.69 1165.00 785.77 L 1145.81 709.46 L 1144.78 704.32 L 1167.05 702.27 Z" fill="#c0c6cd" fill-rule="nonzero" group-id="1,2" id="路径" node-id="87" stroke="none" target-height="83.50482" target-width="23.040527" target-x="1144.7805" target-y="702.26807"></path><path d="M 274.02 778.95 C 290.35 760.68 309.20 745.72 330.57 734.08 C 331.99 733.31 332.07 732.40 330.81 731.36 C 330.46 731.09 330.17 730.82 329.95 730.54 C 329.59 730.16 329.18 730.09 328.72 730.34 C 309.84 739.82 292.92 751.94 277.97 766.70 C 276.92 767.72 275.69 768.16 274.27 768.02 L 272.38 767.86 C 281.29 748.62 308.38 715.58 333.20 723.43 C 355.80 730.58 323.46 752.90 316.43 757.46 C 299.94 768.12 285.80 775.28 274.02 778.95 Z" fill="#02b0f4" fill-rule="nonzero" group-id="1,2" id="路径" node-id="88" stroke="none" target-height="63.368347" target-width="83.42264" target-x="272.37695" target-y="715.5828"></path><path d="M 178.89 740.12 L 155.09 739.83 C 153.72 739.80 153.09 740.46 153.20 741.80 L 153.37 743.86 C 153.45 745.19 154.59 746.22 155.96 746.20 C 173.02 745.76 189.23 749.21 204.57 756.55 C 196.87 758.66 189.00 759.12 180.94 757.91 C 167.65 758.38 155.27 755.75 143.79 750.02 C 142.53 749.42 141.61 748.47 141.04 747.18 C 131.01 724.50 171.94 736.66 178.89 740.12 Z" fill="#02b0f4" fill-rule="nonzero" group-id="1,2" id="路径" node-id="89" stroke="none" target-height="34.6156" target-width="73.55986" target-x="131.01053" target-y="724.5004"></path><path d="M 806.77 746.45 C 824.42 748.28 842.09 748.94 859.79 748.42 C 910.50 746.88 961.21 746.91 1011.92 748.50 L 1015.00 785.49 L 772.71 785.32 C 785.72 773.81 797.08 760.86 806.77 746.45 Z" fill="#8a96a0" fill-rule="nonzero" group-id="1,2" id="路径" node-id="90" stroke="none" target-height="39.04016" target-width="242.29553" target-x="772.7073" target-y="746.44507"></path><path d="M 1090.00 749.53 L 1099.25 783.43 C 1092.73 785.38 1086.07 785.99 1079.28 785.28 C 1077.60 785.09 1076.67 784.16 1076.48 782.49 L 1072.70 749.57 C 1072.57 748.58 1072.95 747.59 1073.70 746.92 C 1074.46 746.26 1075.50 746.00 1076.48 746.24 L 1090.00 749.53 Z" fill="#8a96a0" fill-rule="nonzero" group-id="1,2" id="路径" node-id="91" stroke="none" target-height="39.98816" target-width="26.673096" target-x="1072.5742" target-y="746.0039"></path><path d="M 204.57 756.55 C 229.15 762.77 242.84 778.53 245.67 803.81 L 200.63 803.94 C 199.93 803.94 199.27 804.25 198.81 804.77 C 198.35 805.30 198.15 806.00 198.24 806.69 L 214.84 928.13 C 176.82 930.92 138.48 931.44 99.82 929.69 C 97.76 929.58 96.98 928.52 97.48 926.52 C 112.11 865.66 136.19 809.81 180.94 764.73 C 181.95 763.72 182.26 762.53 181.84 761.16 L 180.94 757.91 C 189.00 759.12 196.87 758.66 204.57 756.55 Z" fill="#d6eeff" fill-rule="nonzero" group-id="1,2" id="路径" node-id="92" stroke="none" target-height="174.88617" target-width="148.68134" target-x="96.98395" target-y="756.55444"></path><path d="M 291.03 890.28 L 285.73 928.13 C 262.12 930.13 238.49 930.13 214.84 928.13 L 198.24 806.69 C 198.15 806.00 198.35 805.30 198.81 804.77 C 199.27 804.25 199.93 803.94 200.63 803.94 L 245.67 803.81 L 256.97 802.79 C 271.54 804.51 285.71 804.69 299.46 803.32 C 301.51 803.10 302.40 804.01 302.13 806.03 L 291.03 890.28 Z" fill="#f5488a" fill-rule="nonzero" group-id="1,2" id="路径" node-id="93" stroke="none" target-height="127.339355" target-width="104.25641" target-x="198.14722" target-y="802.7862"></path><path d="M 1181.89 927.14 C 1183.70 915.88 1182.23 905.93 1177.49 897.30 L 1175.44 881.20 C 1179.25 882.07 1182.04 880.99 1183.82 877.95 C 1240.70 860.40 1291.98 884.98 1330.98 926.32 C 1331.66 927.02 1331.85 928.06 1331.47 928.96 C 1331.08 929.86 1330.19 930.44 1329.21 930.43 L 1191.14 929.44 C 1189.68 929.44 1188.38 929.02 1187.23 928.17 C 1185.51 926.91 1183.72 926.56 1181.89 927.14 Z" fill="#d6eeff" fill-rule="nonzero" group-id="1,2" id="路径" node-id="94" stroke="none" target-height="70.03522" target-width="156.4143" target-x="1175.4373" target-y="860.40125"></path><path d="M 1140.51 908.61 C 1130.40 911.13 1120.81 915.00 1111.74 920.24 L 1110.88 889.46 L 1145.36 888.59 C 1146.78 888.56 1147.71 889.24 1148.15 890.61 C 1150.56 898.39 1148.01 904.39 1140.51 908.61 Z" fill="#d6eeff" fill-rule="nonzero" group-id="1,2" id="路径" node-id="95" stroke="none" target-height="31.670471" target-width="39.68396" target-x="1110.8772" target-y="888.56494"></path><path d="M 525.27 889.25 L 646.26 889.41 C 652.07 891.99 655.41 895.89 656.29 901.13 C 657.35 907.74 658.22 910.74 659.74 915.84 C 660.12 917.13 660.13 918.43 659.78 919.74 C 658.63 923.69 656.08 925.51 652.13 925.21 C 650.79 925.10 650.59 925.52 651.52 926.48 L 652.50 927.43 C 652.89 927.81 652.82 928.11 652.30 928.33 C 651.83 928.52 651.56 928.80 651.48 929.15 L 529.22 929.15 C 526.34 929.07 525.04 927.77 525.32 925.25 C 526.63 913.88 526.22 902.62 524.08 891.47 L 525.27 889.25 Z" fill="#372c47" fill-rule="nonzero" group-id="1,2" id="路径" node-id="96" stroke="none" target-height="39.903137" target-width="136.05151" target-x="524.0832" target-y="889.2498"></path><path d="M 646.26 889.41 L 1029.43 889.29 C 1030.91 889.29 1031.97 889.96 1032.63 891.30 C 1034.36 894.81 1033.32 898.15 1029.51 901.33 C 1028.39 902.26 1027.32 903.26 1026.30 904.33 C 1024.91 905.76 1023.93 907.52 1023.39 909.63 C 1011.25 912.07 1000.02 916.74 989.69 923.65 C 988.54 924.41 988.11 925.47 988.41 926.81 C 988.66 927.85 989.36 928.63 990.51 929.15 L 651.48 929.15 C 651.56 928.80 651.83 928.52 652.30 928.33 C 652.82 928.11 652.89 927.81 652.50 927.43 L 651.52 926.48 C 650.59 925.52 650.79 925.10 652.13 925.21 C 656.08 925.51 658.63 923.69 659.78 919.74 C 660.13 918.43 660.12 917.13 659.74 915.84 C 658.22 910.74 657.35 907.74 656.29 901.13 C 655.41 895.89 652.07 891.99 646.26 889.41 Z" fill="#4d425c" fill-rule="nonzero" group-id="1,2" id="路径" node-id="97" stroke="none" target-height="39.862" target-width="388.10022" target-x="646.2583" target-y="889.29095"></path><path d="M 1110.88 889.46 L 1111.74 920.24 L 1104.92 925.04 C 1103.38 926.11 1103.45 927.06 1105.12 927.88 L 1107.63 929.15 L 1040.85 929.15 L 1062.59 928.45 C 1064.46 928.41 1065.98 926.95 1066.08 925.08 C 1066.71 915.66 1065.11 906.73 1061.28 898.29 L 1062.84 891.51 C 1063.19 890.09 1064.11 889.37 1065.59 889.37 L 1110.88 889.46 Z" fill="#594e66" fill-rule="nonzero" group-id="1,2" id="路径" node-id="98" stroke="none" target-height="39.779846" target-width="70.888794" target-x="1040.8514" target-y="889.3731"></path><path d="M 291.03 890.28 L 524.08 891.47 C 526.22 902.62 526.63 913.88 525.32 925.25 C 525.04 927.77 526.34 929.07 529.22 929.15 C 449.47 929.21 369.70 929.26 289.92 929.32 C 287.21 929.32 287.83 928.95 285.73 928.13 L 291.03 890.28 Z" fill="#4d425c" fill-rule="nonzero" group-id="1,2" id="路径" node-id="99" stroke="none" target-height="39.04016" target-width="243.48724" target-x="285.7328" target-y="890.2772"></path><path d="M 1177.49 897.30 C 1182.23 905.93 1183.70 915.88 1181.89 927.14 C 1157.15 929.58 1132.40 930.25 1107.63 929.15 L 1105.12 927.88 C 1103.45 927.06 1103.38 926.11 1104.92 925.04 L 1111.74 920.24 C 1120.81 915.00 1130.40 911.13 1140.51 908.61 C 1155.38 911.92 1167.71 908.15 1177.49 897.30 Z" fill="#00303f" fill-rule="nonzero" group-id="1,2" id="路径" node-id="100" stroke="none" target-height="32.944397" target-width="80.31311" target-x="1103.3843" target-y="897.30444"></path><path d="M 1061.28 898.29 C 1065.11 906.73 1066.71 915.66 1066.08 925.08 C 1065.98 926.95 1064.46 928.41 1062.59 928.45 L 1040.85 929.15 L 990.51 929.15 C 989.36 928.63 988.66 927.85 988.41 926.81 C 988.11 925.47 988.54 924.41 989.69 923.65 C 1000.02 916.74 1011.25 912.07 1023.39 909.63 C 1037.55 911.77 1050.18 907.99 1061.28 898.29 Z" fill="#00303f" fill-rule="nonzero" group-id="1,2" id="路径" node-id="101" stroke="none" target-height="30.862244" target-width="78.60083" target-x="988.11304" target-y="898.2907"></path></g></g></svg>